{"title":"Un.Amore.All.Improvviso.2009.iTALiAN.MD.TS.XviD-SiLENT[survivalo","uid":5112518,"size":723893442,"categoryP":"video","categoryS":"movies","magnet":"?xt=urn:btih:4ba6c27212c5f85423c518929620a746aa6f0be3&amp;dn=Un.Amore.All.Improvviso.2009.iTALiAN.MD.TS.XviD-SiLENT%5Bsurvivalo&amp;tr=udp%3A%2F%2Ftracker.openbittorrent.com%3A80&amp;tr=udp%3A%2F%2Fopen.demonii.com%3A1337&amp;tr=udp%3A%2F%2Ftracker.coppersurfer.tk%3A6969&amp;tr=udp%3A%2F%2Fexodus.desync.com%3A6969","seeders":1,"leechers":0,"uploader":"misafor","files":1,"time":1254878195,"description":"More info: survivalofmisa.altervista\n\nGeneral\nComplete name                    : Un.Amore.All.Improvviso.2009.iTALiAN.MD.TS.XviD-SiLENT[survivalofmisa].avi\nFormat                           : AVI\nFormat/Info                      : Audio Video Interleave\nFile size                        : 690 MiB\nDuration                         : 1h 37mn\nOverall bit rate                 : 989 Kbps\n\nVideo\nID                               : 0\nFormat                           : MPEG-4 Visual\nFormat profile                   : AdvancedSimple@L5\nFormat settings, BVOP            : Yes\nFormat settings, QPel            : No\nFormat settings, GMC             : No warppoints\nFormat settings, Matrix          : Default (MPEG)\nCodec ID                         : XVID\nCodec ID/Hint                    : XviD\nDuration                         : 1h 37mn\nBit rate                         : 857 Kbps\nWidth                            : 640 pixels\nHeight                           : 272 pixels\nDisplay aspect ratio             : 2.35:1\nFrame rate                       : 23.976 fps\nResolution                       : 24 bits\nColorimetry                      : 4:2:0\nScan type                        : Progressive\nBits/(Pixel*Frame)               : 0.205\nStream size                      : 598 MiB (87%)\nWriting library                  : XviD 1.2.1 (UTC 2008-12-04)\n\nAudio\nID                               : 1\nFormat                           : MPEG Audio\nFormat version                   : Version 1\nFormat profile                   : Layer 3\nCodec ID                         : 55\nCodec ID/Hint                    : MP3\nDuration                         : 1h 37mn\nBit rate mode                    : Variable\nBit rate                         : 120 Kbps\nNominal bit rate                 : 128 Kbps\nChannel(s)                       : 2 channels\nSampling rate                    : 48.0 KHz\nResolution                       : 16 bits\nStream size                      : 83.5 MiB (12%)\nAlignment                        : Aligned on interleaves\nInterleave, duration             : 24 ms (0.58 video frame)\nInterleave, preload duration     : 513 ms\nWriting library                  : LAME3.98r\nEncoding settings                : -m j -V 4 -q 3 -lowpass 17 --abr 128\n\n\n\nMore info: survivalofmisa.altervista","torrent":{"xt":"urn:btih:4ba6c27212c5f85423c518929620a746aa6f0be3","amp;dn":"Un.Amore.All.Improvviso.2009.iTALiAN.MD.TS.XviD-SiLENT%5Bsurvivalo","amp;tr":["udp%3A%2F%2Ftracker.openbittorrent.com%3A80","udp%3A%2F%2Fopen.demonii.com%3A1337","udp%3A%2F%2Ftracker.coppersurfer.tk%3A6969","udp%3A%2F%2Fexodus.desync.com%3A6969"],"infoHash":"4ba6c27212c5f85423c518929620a746aa6f0be3","infoHashBuffer":{"type":"Buffer","data":[75,166,194,114,18,197,248,84,35,197,24,146,150,32,167,70,170,111,11,227]},"announce":[],"urlList":[]}}